# xmcd CD database file
# Copyright (C) 1993-1998 Ti Kan
# 
# Track frame offsets:
#     182
#     13915
#     25370
#     39215
#     52500
#     64222
#     81647
#     97647
#     117707
#     135992
# 
# Disc length: 2006 seconds
# 
# Revision: 1
# Processed by: cddbd v1.4b41PL1 Copyright (c) Steve Scherf et al.
# Submitted via: DiscPlay 4.0.4
# 
DISCID=7907d40a
DTITLE=Townes Van Zandt - Flyin' Shoes
DYEAR=1900
DGENRE=
TTITLE0=Dollar Bill Blues
TTITLE1=Rex's Blues
TTITLE2=Pueblo Waltz
TTITLE3=Brother Flower
TTITLE4=Snake Song
TTITLE5=Loretta
TTITLE6=No Place to Fall
TTITLE7=Flyin' Shoes
TTITLE8=Who Do You Love
TTITLE9=When She Don't Need Me
EXTD=
EXTT0=
EXTT1=
EXTT2=
EXTT3=
EXTT4=
EXTT5=
EXTT6=
EXTT7=
EXTT8=
EXTT9=
PLAYORDER=
